<svg xmlns="http://www.w3.org/2000/svg" width="81" height="28" viewBox="0 0 81 28" fill="none">
  <path d="M48.1897 19.611C48.1897 23.0544 45.7698 25.8522 42.7095 25.8522H34.7383V23.6283H42.7095C44.4888 23.6283 45.9834 21.8349 45.9834 19.611C45.9834 17.3872 44.5599 15.5937 42.7095 15.5937H39.0798C36.0906 15.5937 33.5996 12.7959 33.5996 9.35252C33.5996 5.9091 36.0194 3.11133 39.0798 3.11133H47.1221V5.3352H39.1509C37.3717 5.3352 35.8771 7.12865 35.8771 9.35252C35.8771 11.5764 37.3717 13.3698 39.1509 13.3698H42.7807C45.7698 13.3698 48.1897 16.1676 48.1897 19.611Z" fill="#181719"/>
  <path d="M80.9997 3.11133V5.40694H75.2348V24.7044H73.0285V5.40694H67.2637V3.11133H80.9997Z" fill="#181719"/>
  <path d="M53.5273 5.40694V11.4329H60.1462V13.6568H53.5273V24.7044H51.321V3.11133H64.8435V5.40694H53.5273Z" fill="#181719"/>
  <path fill-rule="evenodd" clip-rule="evenodd" d="M13.0984 12.5249C11.6519 8.83343 11.5715 6.10498 13.018 4.33951C14.6279 2.38729 17.8834 1.79081 20.6062 1.69761C21.1393 1.9843 21.6475 2.30242 22.1276 2.64865C22.7338 3.1027 23.34 3.55676 23.8705 4.16216C26.447 6.65946 28.0383 10.1405 28.0383 14C28.0383 17.8595 26.447 21.3405 23.9463 23.9135C21.4455 26.4865 17.8839 28 14.0192 28C13.166 28 12.3128 27.9112 11.4967 27.752C12.1693 27.5058 12.7742 27.1566 13.3394 26.6486C15.9913 24.2412 15.9109 19.5065 13.0984 12.5249ZM5.73862 25.2191C5.43416 24.997 5.13791 24.7634 4.84988 24.5189C1.89448 22.0216 0 18.2378 0 14C0 10.1405 1.59137 6.65946 4.09208 4.08649C6.66858 1.58919 10.1544 0 14.0192 0C14.5168 0 15.0016 0.0254935 15.4737 0.0764812C13.8046 0.603579 12.2175 1.45712 11.009 2.81478C9.00007 5.30249 8.91971 8.83343 10.768 13.4076C13.0984 19.1855 13.4198 23.198 11.6519 24.8832C10.4153 26.1181 7.92765 25.9721 5.73862 25.2191Z" fill="#FFD12C"/>
</svg>