<svg xmlns="http://www.w3.org/2000/svg" width="46" height="46" viewBox="0 0 46 46" fill="none">
  <rect width="46" height="46" rx="8" fill="#F1F1F1"/>
  <path d="M22.7674 13.2846L14.1269 17.7141L23.0332 22.2617L31.9396 17.7141L23.2991 13.2846C23.0332 13.1664 22.9003 13.1664 22.7674 13.2846ZM32.6042 18.7181L23.6979 23.2658V32.4792L32.4048 28.0497C32.5378 27.9906 32.6042 27.8725 32.6042 27.6953V18.7181ZM13.3958 18.7181V27.6362C13.3958 27.7544 13.4622 27.9315 13.5952 27.9906L22.3021 32.4201V23.3248L13.3958 18.7181ZM23.8973 12.2215L33.0695 16.8872C33.6677 17.1826 34 17.7141 34 18.3047V27.6953C34 28.2859 33.6677 28.8174 33.0695 29.1128L23.8973 33.7785C23.2991 34.0738 22.6344 34.0738 22.0363 33.7785L12.9305 29.1128C12.3323 28.8174 12 28.2859 12 27.6953V18.3047C12 17.7141 12.3323 17.1826 12.9305 16.8872L22.1027 12.2215C22.6344 11.9262 23.2991 11.9262 23.8973 12.2215Z" fill="#181719"/>
</svg>